<svg version="1.0" xmlns="http://www.w3.org/2000/svg"
 width="512.000000pt" height="512.000000pt" viewBox="0 0 512.000000 512.000000"
 preserveAspectRatio="xMidYMid meet">

<g transform="translate(0.000000,512.000000) scale(0.100000,-0.100000)"
fill="#000000" stroke="none">
<path d="M0 2560 l0 -2560 2560 0 2560 0 0 2560 0 2560 -2560 0 -2560 0 0
-2560z m1727 1491 c34 -17 76 -40 93 -52 17 -13 333 -427 703 -921 l672 -897
5 842 5 842 27 51 c56 107 156 164 285 164 168 0 283 -93 312 -254 17 -92 15
-2451 -2 -2532 -43 -205 -242 -304 -433 -215 -109 51 -65 -2 -754 908 -96 127
-294 388 -440 581 l-265 349 -5 -811 c-4 -581 -9 -820 -17 -844 -49 -139 -157
-216 -303 -215 -135 1 -237 60 -291 169 l-24 49 0 1300 0 1300 27 52 c77 146
255 205 405 134z"/>
</g>
</svg>
